<svg width="67" height="50" viewBox="0 0 67 50" fill="none" xmlns="http://www.w3.org/2000/svg">
<g opacity="0.56">
<path d="M66.3709 36.6443C66.3302 36.5927 62.3425 31.4617 61.0459 27.3602C60.7394 26.3836 60.3541 25.0082 59.9121 23.4322C57.8043 15.8923 55.8864 9.47682 53.7597 7.35143C51.334 4.92565 41.8278 3.38268 38.6659 2.92839C37.5709 1.02018 36.257 0 34.7221 0C30.409 0 13.8888 5.73867 13.8888 15.2777C13.8888 19.4431 9.76822 25.5832 6.1306 31.0004C2.84023 35.9023 0 40.1354 0 43.0556C0 50 6.93086 50 12.5 50C15.606 50 17.2363 49.1849 18.6768 48.4646C20.0087 47.7973 21.1616 47.2221 23.6112 47.2221C32.2673 47.2221 38.8889 46.9156 38.8889 43.0555C38.8889 42.7561 38.9267 42.1445 38.9875 41.3397C39.0239 41.3617 39.0587 41.384 39.0952 41.4061C41.9245 43.1233 44.8541 44.8987 47.4095 49.3082C47.6591 49.7368 48.1148 50 48.6112 50C61.8273 50 66.5284 38.1172 66.5744 37.9963C66.748 37.5422 66.6721 37.0281 66.3709 36.6443ZM36.5044 4.6957L38.8699 13.9921L38.6498 16.1208C38.1824 15.1914 37.756 14.2525 37.3996 13.3695C36.3742 10.8292 32.3323 5.72526 28.8058 5.00768C28.0703 4.85482 27.3801 4.89167 26.7578 5.10768C30.0357 3.63216 33.2161 2.77786 34.7221 2.77786C35.2376 2.77786 35.8995 3.49128 36.5044 4.6957ZM36.122 43.0135C35.3299 44.4445 26.5083 44.4445 23.6112 44.4445C22.5426 44.4445 21.6932 44.5622 20.9216 44.7182C22.631 40.8852 25 33.7579 25 23.6112C25 22.8435 24.3788 22.2223 23.6111 22.2223C22.8433 22.2223 22.2221 22.8435 22.2221 23.6112C22.2221 36.7083 18.0003 44.5909 17.0819 46.1495C15.887 46.7388 14.7312 47.2224 12.4999 47.2224C5.89179 47.2224 2.7776 46.8115 2.7776 43.0557C2.7776 40.9819 5.65573 36.6945 8.43893 32.5482C12.2939 26.8013 16.6667 20.2881 16.6667 15.2779C16.6667 11.146 21.3936 7.63841 26.1275 5.39818C25.8711 5.55091 25.6301 5.73906 25.4069 5.96263C22.0621 9.30469 23.9773 14.9904 26.6331 18.8438C28.7598 21.9294 30.3385 25.5725 30.5611 27.9095C30.5991 28.2974 30.6154 28.665 30.6316 29.0285C30.7238 31.0345 30.8215 33.1098 33.5993 36.9279C34.3986 38.0266 35.3336 38.8681 36.3409 39.6112C36.2001 41.2941 36.1126 42.5559 36.122 43.0135ZM49.387 47.206C46.5604 42.6853 43.2346 40.6685 40.5355 39.0314C38.642 37.8839 37.0091 36.8924 35.8453 35.2947C33.5558 32.1479 33.4907 30.7156 33.4066 28.9009C33.3876 28.4927 33.3686 28.0803 33.328 27.6464C33.0594 24.8361 31.3315 20.7616 28.9226 17.2677C26.7797 14.1617 25.3825 9.91497 27.371 7.92656C27.5364 7.7651 27.7508 7.62812 28.2526 7.72995C30.4281 8.17213 33.9384 12.2194 34.8226 14.4086C35.886 17.0413 38.7642 23.3333 42.5239 24.8944C42.9526 25.0694 43.4436 25.0233 43.826 24.7669C45.215 23.8419 45.8497 22.3934 46.3135 21.3367C46.4465 21.0329 46.631 20.6165 46.6255 20.5867C47.1924 20.1934 47.385 19.4419 47.0758 18.8234C46.6526 17.9784 46.0015 15.716 45.7845 14.9159C45.6706 14.494 45.3668 14.1509 44.9599 13.9881L41.3703 12.5523L39.6754 5.8931C44.5173 6.67422 50.5332 8.0543 51.7958 9.31562C53.5807 11.1005 55.8703 19.2874 57.2375 24.1797C57.6877 25.791 58.0838 27.1975 58.3985 28.1958C59.5623 31.885 62.4838 36.068 63.672 37.6793C62.5786 39.898 58.4418 46.829 49.387 47.206ZM41.0363 20.0332L41.4967 15.5949L43.2915 16.3128C43.5058 17.0669 43.872 18.2876 44.2383 19.2397C44.07 19.5367 43.9235 19.8677 43.769 20.2203C43.5166 20.7954 43.2427 21.4247 42.8575 21.913C42.2465 21.4779 41.6332 20.813 41.0363 20.0332Z" fill="white"/>
</g>
</svg>
