<svg width="630" height="122" viewBox="0 0 630 122" fill="none" xmlns="http://www.w3.org/2000/svg">
<path fill-rule="evenodd" clip-rule="evenodd" d="M60.7951 4.74962L4.74962 60.7951L9.02427 65.0697H4.27466L0 60.7951L60.7951 0L109.241 48.4461H104.492L60.7951 4.74962ZM18.2828 60.7949L60.7919 18.1671L91.0146 48.3272H77.5825L60.7919 31.5848L36.2126 56.4015L99.0263 56.5203L103.301 60.7949L60.7919 103.304L30.6318 73.1439H43.9307L60.7919 90.0051L85.6579 65.0696H22.5575L18.2828 60.7949ZM116.839 60.7944L60.794 116.84L17.0975 73.1434H12.3479L60.794 121.589L121.589 60.7944L117.314 56.5197H112.584L116.839 60.7944Z" fill="#1F1E24"/>
<path d="M251.964 57.614C251.342 56.6068 250.601 55.5254 249.742 54.37C248.912 53.185 247.994 52.0148 246.987 50.8593C246.009 49.6744 244.987 48.5485 243.92 47.482C242.854 46.3859 241.787 45.423 240.721 44.5935L240.721 57.614L233.788 57.614L233.788 26.818L240.721 26.818L240.721 38.4609C242.528 36.5649 244.335 34.5947 246.142 32.5506C247.979 30.4768 249.682 28.5659 251.253 26.818L259.474 26.818C257.37 29.3065 255.252 31.7062 253.119 34.017C251.016 36.3279 248.794 38.6535 246.453 40.9939C248.912 43.0381 251.282 45.4674 253.564 48.2819C255.874 51.0964 258.081 54.2071 260.185 57.614L251.964 57.614ZM272.565 52.3258C273.543 52.3258 274.343 52.2518 274.965 52.1036C275.617 51.9259 276.135 51.7037 276.52 51.4371C276.906 51.1408 277.172 50.8001 277.32 50.415C277.469 50.0299 277.543 49.6002 277.543 49.1262C277.543 48.119 277.069 47.2894 276.121 46.6377C275.172 45.9562 273.543 45.2305 271.232 44.4602C270.225 44.1047 269.218 43.7047 268.21 43.2603C267.203 42.7863 266.299 42.2086 265.5 41.5272C264.7 40.8162 264.048 39.9718 263.544 38.9942C263.041 37.987 262.789 36.7722 262.789 35.3502C262.789 33.9282 263.055 32.6543 263.589 31.5285C264.122 30.3731 264.877 29.3954 265.855 28.5955C266.833 27.7956 268.018 27.1883 269.41 26.7735C270.803 26.3291 272.373 26.1069 274.121 26.1069C276.195 26.1069 277.987 26.3291 279.498 26.7735C281.009 27.2179 282.253 27.7067 283.231 28.24L281.231 33.706C280.372 33.2616 279.409 32.8765 278.342 32.5506C277.306 32.1951 276.047 32.0173 274.565 32.0173C272.906 32.0173 271.706 32.2543 270.966 32.7283C270.255 33.1727 269.899 33.8689 269.899 34.8169C269.899 35.3798 270.032 35.8539 270.299 36.239C270.566 36.6241 270.936 36.9796 271.41 37.3055C271.914 37.6017 272.477 37.8832 273.099 38.1499C273.75 38.3869 274.461 38.6387 275.232 38.9053C276.832 39.4979 278.224 40.0903 279.409 40.6829C280.594 41.2457 281.572 41.9123 282.342 42.6826C283.142 43.4529 283.734 44.3564 284.12 45.3934C284.505 46.4303 284.697 47.6893 284.697 49.1707C284.697 52.0443 283.69 54.2811 281.675 55.8809C279.661 57.4512 276.624 58.2362 272.565 58.2362C271.203 58.2362 269.973 58.1473 268.877 57.9696C267.781 57.8214 266.803 57.6289 265.944 57.3919C265.114 57.1548 264.389 56.903 263.766 56.6364C263.174 56.3698 262.67 56.118 262.256 55.8809L264.211 50.3705C265.129 50.8742 266.255 51.3333 267.588 51.7481C268.951 52.1332 270.61 52.3258 272.565 52.3258ZM288.846 41.3494L301.733 41.3494L301.733 47.3487L288.846 47.3487L288.846 41.3494ZM314.791 52.3258C315.769 52.3258 316.569 52.2518 317.191 52.1036C317.843 51.9259 318.361 51.7037 318.746 51.4371C319.132 51.1408 319.398 50.8001 319.546 50.415C319.694 50.0299 319.769 49.6002 319.769 49.1262C319.769 48.119 319.294 47.2894 318.346 46.6377C317.398 45.9562 315.769 45.2305 313.458 44.4602C312.451 44.1047 311.444 43.7047 310.436 43.2603C309.429 42.7863 308.525 42.2086 307.726 41.5272C306.926 40.8162 306.274 39.9718 305.77 38.9942C305.266 37.987 305.015 36.7722 305.015 35.3502C305.015 33.9282 305.281 32.6543 305.815 31.5285C306.348 30.3731 307.103 29.3954 308.081 28.5955C309.059 27.7956 310.244 27.1883 311.636 26.7735C313.028 26.3291 314.599 26.1069 316.347 26.1069C318.42 26.1069 320.213 26.3291 321.724 26.7735C323.235 27.2179 324.479 27.7067 325.457 28.24L323.457 33.706C322.598 33.2616 321.635 32.8765 320.568 32.5506C319.531 32.1951 318.272 32.0173 316.791 32.0173C315.132 32.0173 313.932 32.2543 313.192 32.7283C312.48 33.1727 312.125 33.8689 312.125 34.8169C312.125 35.3798 312.258 35.8539 312.525 36.239C312.792 36.6241 313.162 36.9796 313.636 37.3055C314.139 37.6017 314.702 37.8832 315.325 38.1499C315.976 38.3869 316.687 38.6387 317.458 38.9053C319.057 39.4979 320.45 40.0903 321.635 40.6829C322.82 41.2457 323.798 41.9123 324.568 42.6826C325.368 43.4529 325.96 44.3564 326.346 45.3934C326.731 46.4303 326.923 47.6893 326.923 49.1707C326.923 52.0443 325.916 54.2811 323.901 55.8809C321.887 57.4512 318.85 58.2362 314.791 58.2362C313.428 58.2362 312.199 58.1473 311.103 57.9696C310.007 57.8214 309.029 57.6289 308.17 57.3919C307.34 57.1548 306.615 56.903 305.992 56.6364C305.4 56.3698 304.896 56.118 304.481 55.8809L306.437 50.3705C307.355 50.8742 308.481 51.3333 309.814 51.7481C311.177 52.1332 312.836 52.3258 314.791 52.3258ZM341.501 26.4624C346.093 26.4624 349.618 27.2772 352.077 28.9066C354.536 30.5064 355.766 33.1431 355.766 36.8167C355.766 40.52 354.521 43.201 352.033 44.8601C349.544 46.4895 345.989 47.3042 341.367 47.3042H339.19V57.614L332.257 57.614L332.257 27.2623C333.768 26.9661 335.368 26.7587 337.057 26.6402C338.745 26.5217 340.227 26.4624 341.501 26.4624ZM341.945 32.3728C341.441 32.3728 340.938 32.3877 340.434 32.4172C339.96 32.4468 339.545 32.4765 339.19 32.5061V41.3939H341.367C343.767 41.3939 345.574 41.068 346.789 40.4162C348.003 39.7645 348.611 38.5498 348.611 36.7722C348.611 35.9131 348.448 35.202 348.122 34.6392C347.826 34.0763 347.381 33.632 346.789 33.306C346.226 32.9505 345.53 32.7135 344.7 32.595C343.871 32.4468 342.952 32.3728 341.945 32.3728ZM378.439 57.614C378.113 56.5475 377.742 55.4514 377.328 54.3256C376.942 53.1997 376.557 52.0741 376.172 50.9482L364.173 50.9482C363.788 52.0741 363.388 53.1997 362.973 54.3256C362.588 55.4514 362.233 56.5475 361.907 57.614L354.708 57.614C355.863 54.296 356.959 51.2297 357.996 48.4152C359.033 45.6007 360.04 42.9492 361.018 40.4607C362.025 37.9721 363.003 35.6168 363.951 33.3949C364.929 31.1434 365.936 28.951 366.973 26.818L373.595 26.818C374.602 28.951 375.595 31.1434 376.572 33.3949C377.55 35.6168 378.528 37.9721 379.505 40.4607C380.512 42.9492 381.534 45.6007 382.572 48.4152C383.608 51.2297 384.705 54.296 385.86 57.614L378.439 57.614ZM370.129 33.7948C369.98 34.2392 369.758 34.8465 369.462 35.6168C369.165 36.3872 368.824 37.2759 368.439 38.2832C368.054 39.2904 367.625 40.4014 367.151 41.6161C366.706 42.8308 366.247 44.1047 365.773 45.4378L374.528 45.4378C374.053 44.1047 373.595 42.8308 373.151 41.6161C372.706 40.4014 372.276 39.2904 371.862 38.2832C371.476 37.2759 371.136 36.3872 370.84 35.6168C370.543 34.8465 370.307 34.2392 370.129 33.7948ZM410.51 57.614C408.526 54.0885 406.377 50.6076 404.066 47.1709C401.756 43.7343 399.296 40.4902 396.689 37.4388L396.689 57.614L389.846 57.614L389.846 26.818L395.49 26.818C396.467 27.7956 397.549 28.9955 398.734 30.4175C399.918 31.8395 401.118 33.3653 402.333 34.9947C403.578 36.5945 404.807 38.2683 406.022 40.0163C407.237 41.7345 408.377 43.3936 409.443 44.9934V26.818L416.332 26.818L416.332 57.614L410.51 57.614ZM444.1 57.614C442.115 54.0885 439.968 50.6076 437.657 47.1709C435.346 43.7343 432.887 40.4902 430.28 37.4388L430.28 57.614L423.436 57.614L423.436 26.818L429.08 26.818C430.058 27.7956 431.138 28.9955 432.324 30.4175C433.509 31.8395 434.709 33.3653 435.924 34.9947C437.168 36.5945 438.397 38.2683 439.612 40.0163C440.826 41.7345 441.967 43.3936 443.034 44.9934V26.818L449.922 26.818L449.922 57.614L444.1 57.614ZM463.958 51.9703C464.284 51.9999 464.654 52.0296 465.069 52.0592C465.513 52.0592 466.031 52.0592 466.624 52.0592C470.09 52.0592 472.653 51.1853 474.312 49.4373C476.001 47.6893 476.845 45.2749 476.845 42.1938C476.845 38.9646 476.045 36.5205 474.445 34.8614C472.846 33.2023 470.313 32.3728 466.846 32.3728C466.373 32.3728 465.884 32.3877 465.38 32.4172C464.876 32.4172 464.402 32.4468 463.958 32.5061L463.958 51.9703ZM484 42.1938C484 44.8601 483.585 47.1858 482.756 49.1707C481.926 51.1556 480.741 52.7998 479.2 54.1034C477.69 55.407 475.838 56.3846 473.646 57.0363C471.453 57.6881 468.995 58.014 466.269 58.014C465.024 58.014 463.573 57.9547 461.914 57.8362C460.254 57.7474 458.625 57.54 457.025 57.2141L457.025 27.2179C458.625 26.9217 460.285 26.7291 462.002 26.6402C463.751 26.5217 465.247 26.4624 466.491 26.4624C469.128 26.4624 471.512 26.7587 473.646 27.3512C475.808 27.9437 477.66 28.877 479.2 30.1509C480.741 31.4247 481.926 33.0542 482.756 35.0391C483.585 37.024 484 39.409 484 42.1938ZM489.791 57.614L489.791 26.818L510.588 26.818V32.6394L496.723 32.6394V38.6831L509.033 38.6831L509.033 44.3713L496.723 44.3713V51.7926L511.61 51.7926V57.614L489.791 57.614ZM530.783 58.2362C525.777 58.2362 521.955 56.8437 519.318 54.0589C516.711 51.2742 515.407 47.3191 515.407 42.1938C515.407 39.6459 515.807 37.3795 516.607 35.3946C517.407 33.38 518.503 31.6914 519.896 30.3286C521.288 28.9362 522.947 27.8845 524.873 27.1735C526.799 26.4624 528.888 26.1069 531.139 26.1069C532.443 26.1069 533.627 26.2106 534.694 26.418C535.76 26.5958 536.694 26.818 537.493 27.0846C538.293 27.3216 538.96 27.5734 539.493 27.84C540.027 28.1067 540.411 28.3141 540.649 28.4622L538.649 34.0615C537.7 33.5578 536.589 33.1283 535.316 32.7728C534.072 32.4172 532.65 32.2395 531.05 32.2395C529.983 32.2395 528.932 32.4172 527.895 32.7728C526.888 33.1283 525.984 33.706 525.184 34.5059C524.413 35.2762 523.791 36.2834 523.317 37.5277C522.844 38.772 522.606 40.2829 522.606 42.0605C522.606 43.4825 522.755 44.8157 523.051 46.06C523.377 47.2747 523.88 48.3263 524.562 49.2151C525.273 50.1039 526.191 50.8149 527.317 51.3482C528.443 51.8519 529.806 52.1036 531.405 52.1036C532.412 52.1036 533.316 52.0443 534.116 51.9259C534.916 51.8074 535.627 51.6741 536.249 51.5259C536.871 51.3482 537.42 51.1556 537.893 50.9482C538.367 50.7409 538.797 50.5483 539.182 50.3705L541.093 55.9254C540.115 56.5179 538.738 57.0512 536.96 57.5252C535.183 57.9991 533.123 58.2362 530.783 58.2362ZM563.732 57.614C563.11 56.6068 562.37 55.5254 561.51 54.37C560.681 53.185 559.762 52.0148 558.755 50.8593C557.777 49.6744 556.755 48.5485 555.689 47.482C554.622 46.3859 553.555 45.423 552.489 44.5935V57.614L545.556 57.614V26.818L552.489 26.818V38.4609C554.296 36.5649 556.104 34.5947 557.91 32.5506C559.748 30.4768 561.45 28.5659 563.021 26.818L571.242 26.818C569.138 29.3065 567.021 31.7062 564.887 34.017C562.784 36.3279 560.562 38.6535 558.222 40.9939C560.681 43.0381 563.05 45.4674 565.332 48.2819C567.643 51.0964 569.849 54.2071 571.953 57.614L563.732 57.614ZM575.935 57.614V26.818L596.732 26.818V32.6394L582.867 32.6394V38.6831L595.177 38.6831V44.3713L582.867 44.3713V51.7926L597.754 51.7926V57.614L575.935 57.614ZM623.548 57.614C621.564 54.0885 619.416 50.6076 617.105 47.1709C614.794 43.7343 612.336 40.4902 609.728 37.4388V57.614L602.884 57.614V26.818L608.528 26.818C609.506 27.7956 610.588 28.9955 611.772 30.4175C612.958 31.8395 614.158 33.3653 615.372 34.9947C616.616 36.5945 617.846 38.2683 619.06 40.0163C620.275 41.7345 621.415 43.3936 622.482 44.9934V26.818L629.37 26.818V57.614L623.548 57.614Z" fill="#1F1E24"/>
<path d="M246.594 86.4348C246.594 87.9347 246.361 89.243 245.894 90.3596C245.428 91.4595 244.77 92.3762 243.92 93.1095C243.07 93.8261 242.053 94.3677 240.87 94.7344C239.687 95.0843 238.387 95.2593 236.971 95.2593C236.271 95.2593 235.496 95.226 234.646 95.1593C233.813 95.1093 233.054 95.001 232.371 94.8344L232.371 78.0352C233.054 77.8686 233.813 77.7602 234.646 77.7102C235.496 77.6436 236.271 77.6102 236.971 77.6102C238.387 77.6102 239.687 77.7936 240.87 78.1602C242.053 78.5102 243.07 79.0518 243.92 79.7851C244.77 80.5018 245.428 81.4184 245.894 82.535C246.361 83.6349 246.594 84.9349 246.594 86.4348ZM237.171 93.1344C239.47 93.1344 241.187 92.5511 242.32 91.3845C243.453 90.2013 244.02 88.5514 244.02 86.4348C244.02 84.3182 243.453 82.6767 242.32 81.51C241.187 80.3268 239.47 79.7351 237.171 79.7351C236.487 79.7351 235.954 79.7435 235.571 79.7601C235.204 79.7768 234.946 79.7935 234.796 79.8101L234.796 93.0594C234.946 93.0761 235.204 93.0928 235.571 93.1095C235.954 93.1261 236.487 93.1344 237.171 93.1344ZM255.816 95.1093L255.816 77.7852L266.389 77.7852V79.8601L258.24 79.8601V85.0099L265.489 85.0099V87.0348L258.24 87.0348V93.0345L267.014 93.0345V95.1093L255.816 95.1093ZM282.462 95.4843C281.245 95.4843 280.137 95.2843 279.137 94.8844C278.137 94.4844 277.279 93.9011 276.562 93.1344C275.846 92.3678 275.287 91.4262 274.888 90.3096C274.504 89.1763 274.313 87.8847 274.313 86.4348C274.313 84.9849 274.529 83.7016 274.963 82.585C275.412 81.4517 276.012 80.5018 276.762 79.7351C277.512 78.9685 278.387 78.3852 279.387 77.9852C280.387 77.5852 281.453 77.3853 282.587 77.3853C283.303 77.3853 283.945 77.4353 284.511 77.5352C285.095 77.6352 285.595 77.7519 286.011 77.8852C286.444 78.0186 286.794 78.1519 287.061 78.2852C287.328 78.4185 287.511 78.5185 287.611 78.5852L286.911 80.5851C286.761 80.4851 286.544 80.3768 286.261 80.2601C285.978 80.1434 285.653 80.0268 285.286 79.9101C284.936 79.7935 284.545 79.7018 284.111 79.6351C283.695 79.5518 283.27 79.5101 282.837 79.5101C281.92 79.5101 281.095 79.6685 280.362 79.9851C279.629 80.3018 279.004 80.7601 278.487 81.36C277.971 81.96 277.571 82.6933 277.287 83.5599C277.021 84.4099 276.887 85.3682 276.887 86.4348C276.887 87.4681 277.004 88.4097 277.237 89.2596C277.487 90.1096 277.854 90.8429 278.337 91.4595C278.82 92.0595 279.42 92.5261 280.137 92.8595C280.87 93.1928 281.72 93.3594 282.687 93.3594C283.803 93.3594 284.728 93.2428 285.461 93.0095C286.195 92.7761 286.744 92.5678 287.111 92.3845L287.736 94.3844C287.619 94.4677 287.411 94.576 287.111 94.7094C286.811 94.826 286.436 94.9427 285.986 95.0593C285.536 95.176 285.011 95.276 284.411 95.3593C283.811 95.4427 283.162 95.4843 282.462 95.4843ZM308.961 77.7852C308.445 78.3519 307.862 78.9852 307.212 79.6851C306.562 80.3684 305.878 81.0767 305.162 81.81C304.462 82.5267 303.762 83.235 303.062 83.9349C302.362 84.6349 301.704 85.2849 301.087 85.8848C301.804 86.3848 302.562 87.0014 303.362 87.7347C304.162 88.468 304.945 89.2513 305.712 90.0846C306.478 90.9179 307.195 91.7678 307.862 92.6345C308.545 93.5011 309.111 94.3261 309.561 95.1093H306.712C306.212 94.3261 305.637 93.5428 304.987 92.7595C304.337 91.9595 303.645 91.2012 302.912 90.4846C302.196 89.7513 301.462 89.0763 300.712 88.4597C299.979 87.8431 299.263 87.3181 298.563 86.8848V95.1093H296.138V77.7852H298.563V85.4348C299.146 84.8849 299.787 84.2682 300.487 83.5849C301.187 82.885 301.879 82.185 302.562 81.485C303.245 80.7851 303.887 80.1184 304.487 79.4851C305.104 78.8352 305.62 78.2685 306.037 77.7852H308.961ZM317.483 95.1093V77.7852L328.057 77.7852V79.8601L319.908 79.8601V85.0099H327.157V87.0348L319.908 87.0348V93.0345L328.682 93.0345V95.1093L317.483 95.1093ZM349.261 95.1093C348.895 94.4927 348.47 93.8011 347.987 93.0345C347.52 92.2678 347.012 91.4762 346.462 90.6596C345.912 89.8263 345.337 88.9847 344.737 88.1347C344.154 87.2847 343.57 86.4681 342.987 85.6848C342.404 84.8849 341.837 84.1349 341.287 83.4349C340.737 82.735 340.229 82.1183 339.763 81.585V95.1093H337.388V77.7852H339.313C340.096 78.6185 340.929 79.5935 341.812 80.7101C342.712 81.81 343.595 82.9516 344.462 84.1349C345.345 85.3015 346.17 86.4515 346.937 87.5847C347.72 88.718 348.378 89.7263 348.911 90.6096V77.7852H351.286V95.1093H349.261ZM386.832 86.4348C386.832 87.9347 386.598 89.243 386.132 90.3596C385.665 91.4595 385.007 92.3762 384.157 93.1095C383.307 93.8261 382.291 94.3677 381.107 94.7344C379.924 95.0843 378.624 95.2593 377.208 95.2593C376.508 95.2593 375.733 95.226 374.883 95.1593C374.05 95.1093 373.292 95.001 372.608 94.8344V78.0352C373.292 77.8686 374.05 77.7602 374.883 77.7102C375.733 77.6436 376.508 77.6102 377.208 77.6102C378.624 77.6102 379.924 77.7936 381.107 78.1602C382.291 78.5102 383.307 79.0518 384.157 79.7851C385.007 80.5018 385.665 81.4184 386.132 82.535C386.598 83.6349 386.832 84.9349 386.832 86.4348ZM377.408 93.1344C379.708 93.1344 381.424 92.5511 382.557 91.3845C383.69 90.2013 384.257 88.5514 384.257 86.4348C384.257 84.3182 383.69 82.6767 382.557 81.51C381.424 80.3268 379.708 79.7351 377.408 79.7351C376.725 79.7351 376.191 79.7435 375.808 79.7601C375.441 79.7768 375.183 79.7935 375.033 79.8101V93.0594C375.183 93.0761 375.441 93.0928 375.808 93.1095C376.191 93.1261 376.725 93.1344 377.408 93.1344ZM396.053 77.7852H398.478V95.1093H396.053V77.7852ZM408.39 95.1093V77.7852L418.964 77.7852V79.8601L410.815 79.8601V85.0099H418.064V87.0348H410.815V93.0345L419.589 93.0345V95.1093L408.39 95.1093ZM444.379 95.2593C444.029 95.2593 443.646 95.251 443.229 95.2343C442.829 95.2177 442.421 95.1927 442.004 95.1593C441.604 95.126 441.204 95.0843 440.804 95.0343C440.405 94.9844 440.038 94.9177 439.705 94.8344V78.0352C440.038 77.9519 440.405 77.8852 440.804 77.8352C441.204 77.7852 441.604 77.7436 442.004 77.7102C442.421 77.6769 442.829 77.6519 443.229 77.6352C443.629 77.6186 444.004 77.6102 444.354 77.6102C445.354 77.6102 446.287 77.6852 447.154 77.8352C448.037 77.9852 448.795 78.2435 449.428 78.6102C450.078 78.9602 450.587 79.4268 450.953 80.0101C451.32 80.5934 451.503 81.3101 451.503 82.16C451.503 83.11 451.278 83.8933 450.828 84.5099C450.378 85.1099 449.778 85.5598 449.029 85.8598C450.045 86.1598 450.853 86.6348 451.453 87.2847C452.053 87.9347 452.353 88.8513 452.353 90.0346C452.353 91.7679 451.712 93.0761 450.428 93.9594C449.162 94.826 447.145 95.2593 444.379 95.2593ZM442.104 87.0348V93.1344C442.288 93.1511 442.504 93.1678 442.754 93.1844C442.971 93.2011 443.221 93.2178 443.504 93.2344C443.804 93.2344 444.146 93.2344 444.529 93.2344C445.246 93.2344 445.921 93.1928 446.554 93.1095C447.204 93.0095 447.77 92.8428 448.254 92.6095C448.737 92.3762 449.12 92.0512 449.403 91.6345C449.703 91.2179 449.853 90.6929 449.853 90.0596C449.853 89.493 449.745 89.018 449.528 88.6347C449.312 88.2347 448.995 87.918 448.579 87.6847C448.179 87.4514 447.695 87.2847 447.129 87.1848C446.562 87.0848 445.929 87.0348 445.229 87.0348L442.104 87.0348ZM442.104 85.0849L444.654 85.0849C445.254 85.0849 445.821 85.0432 446.354 84.9599C446.887 84.8765 447.345 84.7265 447.729 84.5099C448.129 84.2932 448.437 84.0099 448.654 83.6599C448.887 83.31 449.004 82.8683 449.004 82.335C449.004 81.835 448.887 81.4184 448.654 81.0851C448.42 80.7351 448.095 80.4601 447.679 80.2601C447.279 80.0435 446.804 79.8851 446.254 79.7851C445.704 79.6851 445.121 79.6351 444.504 79.6351C443.887 79.6351 443.404 79.6435 443.054 79.6601C442.704 79.6768 442.388 79.7018 442.104 79.7351V85.0849ZM461.391 95.1093V77.7852L471.965 77.7852V79.8601L463.816 79.8601V85.0099L471.065 85.0099V87.0348L463.816 87.0348V93.0345L472.59 93.0345V95.1093L461.391 95.1093ZM491.162 86.5848L493.587 86.5848L493.587 94.6844C493.387 94.751 493.095 94.826 492.712 94.9094C492.346 94.9927 491.912 95.076 491.412 95.1593C490.929 95.2427 490.396 95.3093 489.812 95.3593C489.229 95.426 488.638 95.4593 488.038 95.4593C486.821 95.4593 485.713 95.2593 484.713 94.8594C483.713 94.4594 482.855 93.8761 482.138 93.1095C481.422 92.3428 480.864 91.4012 480.464 90.2846C480.08 89.168 479.889 87.8847 479.889 86.4348C479.889 84.9849 480.105 83.7016 480.539 82.585C480.989 81.4517 481.589 80.5018 482.338 79.7351C483.088 78.9685 483.963 78.3852 484.963 77.9852C485.98 77.5852 487.063 77.3853 488.213 77.3853C488.996 77.3853 489.688 77.4353 490.287 77.5352C490.904 77.6352 491.429 77.7519 491.862 77.8852C492.296 78.0186 492.646 78.1519 492.912 78.2852C493.195 78.4185 493.387 78.5185 493.487 78.5852L492.712 80.6101C492.229 80.2934 491.587 80.0351 490.787 79.8351C489.987 79.6185 489.171 79.5101 488.338 79.5101C487.454 79.5101 486.646 79.6685 485.913 79.9851C485.196 80.3018 484.58 80.7601 484.063 81.36C483.563 81.96 483.172 82.6933 482.888 83.5599C482.605 84.4099 482.463 85.3682 482.463 86.4348C482.463 87.4681 482.58 88.4097 482.813 89.2596C483.063 90.1096 483.43 90.8429 483.913 91.4595C484.413 92.0595 485.021 92.5261 485.738 92.8595C486.471 93.1928 487.329 93.3594 488.313 93.3594C489.013 93.3594 489.604 93.3261 490.087 93.2594C490.587 93.1761 490.946 93.1011 491.162 93.0345V86.5848ZM503.008 95.1093L503.008 77.7852L513.582 77.7852V79.8601L505.433 79.8601V85.0099L512.682 85.0099V87.0348L505.433 87.0348V93.0345L514.207 93.0345V95.1093L503.008 95.1093ZM522.913 77.7852H525.337V95.1093H522.913V77.7852ZM539.275 93.3844C541.808 93.3844 543.074 92.5178 543.074 90.7846C543.074 90.2513 542.958 89.8013 542.724 89.4346C542.508 89.0513 542.208 88.7263 541.824 88.4597C541.441 88.1764 540.999 87.9347 540.5 87.7347C540.016 87.5347 539.5 87.3347 538.95 87.1348C538.316 86.9181 537.717 86.6764 537.15 86.4098C536.583 86.1265 536.092 85.8015 535.675 85.4348C535.258 85.0515 534.925 84.6016 534.675 84.0849C534.442 83.5683 534.325 82.9433 534.325 82.21C534.325 80.6934 534.842 79.5101 535.875 78.6602C536.908 77.8102 538.333 77.3853 540.15 77.3853C541.199 77.3853 542.149 77.5019 542.999 77.7352C543.866 77.9519 544.499 78.1935 544.899 78.4602L544.124 80.4351C543.774 80.2184 543.249 80.0101 542.549 79.8101C541.866 79.5935 541.066 79.4851 540.15 79.4851C539.683 79.4851 539.25 79.5351 538.85 79.6351C538.45 79.7351 538.1 79.8851 537.8 80.0851C537.5 80.2851 537.258 80.5434 537.075 80.8601C536.908 81.1601 536.825 81.5184 536.825 81.935C536.825 82.4017 536.917 82.7933 537.1 83.11C537.283 83.4266 537.542 83.7099 537.875 83.9599C538.208 84.1932 538.591 84.4099 539.025 84.6099C539.475 84.8099 539.966 85.0099 540.5 85.2099C541.249 85.5098 541.933 85.8098 542.549 86.1098C543.183 86.4098 543.724 86.7681 544.174 87.1848C544.641 87.6014 544.999 88.1014 545.249 88.6847C545.499 89.2513 545.624 89.9429 545.624 90.7596C545.624 92.2762 545.066 93.4428 543.949 94.2594C542.849 95.076 541.291 95.4843 539.275 95.4843C538.591 95.4843 537.958 95.4343 537.375 95.3343C536.808 95.251 536.3 95.151 535.85 95.0343C535.4 94.901 535.009 94.7677 534.675 94.6344C534.359 94.4844 534.109 94.3594 533.925 94.2594L534.65 92.2595C535.033 92.4762 535.617 92.7178 536.4 92.9845C537.183 93.2511 538.141 93.3844 539.275 93.3844ZM565.752 77.7852V79.8851H560.303V95.1093L557.878 95.1093V79.8851H552.429V77.7852L565.752 77.7852ZM573.937 95.1093V77.7852L584.511 77.7852V79.8601H576.362V85.0099H583.611V87.0348H576.362V93.0345L585.136 93.0345V95.1093L573.937 95.1093ZM602.316 87.8597C602.582 88.193 602.916 88.6347 603.316 89.1847C603.732 89.718 604.157 90.3179 604.59 90.9846C605.024 91.6345 605.449 92.3178 605.865 93.0345C606.299 93.7511 606.665 94.4427 606.965 95.1093H604.315C603.982 94.476 603.616 93.8344 603.216 93.1844C602.832 92.5345 602.441 91.9178 602.041 91.3345C601.641 90.7346 601.241 90.1763 600.841 89.6596C600.458 89.143 600.108 88.693 599.791 88.3097C599.574 88.3264 599.349 88.3347 599.116 88.3347C598.899 88.3347 598.674 88.3347 598.441 88.3347H596.266V95.1093H593.842V78.0352C594.525 77.8686 595.283 77.7602 596.116 77.7102C596.966 77.6436 597.741 77.6102 598.441 77.6102C600.874 77.6102 602.724 78.0686 603.991 78.9852C605.274 79.9018 605.915 81.2684 605.915 83.085C605.915 84.2349 605.607 85.2182 604.99 86.0348C604.39 86.8514 603.499 87.4597 602.316 87.8597ZM598.641 79.7351C597.608 79.7351 596.816 79.7601 596.266 79.8101V86.3348H597.991C598.824 86.3348 599.574 86.2931 600.241 86.2098C600.908 86.1265 601.466 85.9681 601.916 85.7348C602.382 85.5015 602.741 85.1765 602.991 84.7599C603.241 84.3266 603.366 83.7599 603.366 83.06C603.366 82.41 603.241 81.8684 602.991 81.435C602.741 81.0017 602.399 80.6601 601.966 80.4101C601.549 80.1601 601.049 79.9851 600.466 79.8851C599.899 79.7851 599.291 79.7351 598.641 79.7351ZM627.06 95.1093C626.693 94.4927 626.268 93.8011 625.785 93.0345C625.319 92.2678 624.81 91.4762 624.26 90.6596C623.71 89.8263 623.135 88.9847 622.536 88.1347C621.952 87.2847 621.369 86.4681 620.786 85.6848C620.202 84.8849 619.636 84.1349 619.086 83.4349C618.536 82.735 618.028 82.1183 617.561 81.585V95.1093H615.186V77.7852H617.111C617.894 78.6185 618.728 79.5935 619.611 80.7101C620.511 81.81 621.394 82.9516 622.261 84.1349C623.144 85.3015 623.969 86.4515 624.735 87.5847C625.519 88.718 626.177 89.7263 626.71 90.6096V77.7852H629.085V95.1093H627.06Z" fill="#1F1E24"/>
</svg>
