<svg width="35" height="35" viewBox="0 0 35 35" fill="none" xmlns="http://www.w3.org/2000/svg">
<g opacity="0.78">
<path d="M29.873 0H5.12695C2.30019 0 0 2.30019 0 5.12695V29.873C0 32.6998 2.30019 35 5.12695 35H29.873C32.6998 35 35 32.6998 35 29.873V5.12695C35 2.30019 32.6998 0 29.873 0ZM17.5684 26.6602C12.4796 26.6602 8.33984 22.5204 8.33984 17.4316C8.33984 12.3429 12.4796 8.20312 17.5684 8.20312C22.6571 8.20312 26.7969 12.3429 26.7969 17.4316C26.7969 22.5204 22.6571 26.6602 17.5684 26.6602ZM27.8223 10.2539C26.1261 10.2539 24.7461 8.8739 24.7461 7.17773C24.7461 5.48157 26.1261 4.10156 27.8223 4.10156C29.5184 4.10156 30.8984 5.48157 30.8984 7.17773C30.8984 8.8739 29.5184 10.2539 27.8223 10.2539Z" fill="white"/>
<path d="M27.8223 6.15234C27.2564 6.15234 26.7969 6.6119 26.7969 7.17773C26.7969 7.74357 27.2564 8.20312 27.8223 8.20312C28.3881 8.20312 28.8477 7.74357 28.8477 7.17773C28.8477 6.6119 28.3881 6.15234 27.8223 6.15234Z" fill="white"/>
<circle cx="17.5" cy="17.5" r="4.5" fill="white"/>
</g>
</svg>
