<svg width="631" height="122" viewBox="0 0 631 122" fill="none" xmlns="http://www.w3.org/2000/svg">
<path fill-rule="evenodd" clip-rule="evenodd" d="M61.7238 4.87169L5.67833 60.9172L9.95298 65.1918H5.20337L0.928711 60.9172L61.7238 0.12207L110.17 48.5682H105.42L61.7238 4.87169ZM19.2115 60.917L61.7206 18.2892L91.9433 48.4493H78.5112L61.7206 31.7069L37.1413 56.5236L99.955 56.6423L104.23 60.917L61.7206 103.426L31.5605 73.266H44.8595L61.7206 90.1271L86.5866 65.1917H23.4862L19.2115 60.917ZM117.768 60.9165L61.7227 116.962L18.0262 73.2655H13.2766L61.7227 121.712L122.518 60.9165L118.243 56.6418H113.512L117.768 60.9165Z" fill="white"/>
<path d="M252.892 57.7361C252.27 56.7289 251.53 55.6475 250.67 54.4921C249.841 53.3071 248.922 52.1368 247.915 50.9814C246.938 49.7964 245.915 48.6706 244.849 47.6041C243.782 46.508 242.716 45.545 241.649 44.7155L241.649 57.7361L234.717 57.7361L234.717 26.94L241.649 26.94L241.649 38.583C243.456 36.687 245.264 34.7168 247.071 32.6726C248.908 30.5989 250.611 28.688 252.181 26.94L260.403 26.94C258.299 29.4286 256.181 31.8283 254.048 34.1391C251.944 36.4499 249.722 38.7756 247.382 41.116C249.841 43.1602 252.211 45.5895 254.492 48.404C256.803 51.2185 259.01 54.3292 261.114 57.7361L252.892 57.7361ZM273.494 52.4479C274.472 52.4479 275.272 52.3739 275.894 52.2257C276.546 52.048 277.064 51.8258 277.449 51.5591C277.834 51.2629 278.101 50.9221 278.249 50.537C278.397 50.1519 278.471 49.7223 278.471 49.2483C278.471 48.2411 277.997 47.4115 277.049 46.7597C276.101 46.0783 274.472 45.3526 272.161 44.5822C271.154 44.2267 270.146 43.8268 269.139 43.3824C268.132 42.9084 267.228 42.3307 266.428 41.6493C265.628 40.9382 264.977 40.0939 264.473 39.1163C263.969 38.109 263.718 36.8943 263.718 35.4723C263.718 34.0502 263.984 32.7764 264.517 31.6505C265.051 30.4951 265.806 29.5175 266.784 28.7176C267.761 27.9177 268.946 27.3104 270.339 26.8956C271.731 26.4512 273.301 26.229 275.049 26.229C277.123 26.229 278.916 26.4512 280.427 26.8956C281.938 27.34 283.182 27.8288 284.159 28.3621L282.16 33.828C281.301 33.3837 280.338 32.9986 279.271 32.6726C278.234 32.3171 276.975 32.1394 275.494 32.1394C273.835 32.1394 272.635 32.3764 271.894 32.8504C271.183 33.2948 270.828 33.9909 270.828 34.939C270.828 35.5019 270.961 35.976 271.228 36.3611C271.494 36.7461 271.865 37.1017 272.339 37.4276C272.842 37.7238 273.405 38.0053 274.027 38.2719C274.679 38.509 275.39 38.7607 276.16 39.0274C277.76 39.6199 279.153 40.2124 280.338 40.8049C281.523 41.3678 282.5 42.0344 283.271 42.8047C284.071 43.575 284.663 44.4785 285.048 45.5154C285.433 46.5524 285.626 47.8114 285.626 49.2927C285.626 52.1664 284.619 54.4032 282.604 56.003C280.59 57.5732 277.553 58.3583 273.494 58.3583C272.131 58.3583 270.902 58.2694 269.806 58.0916C268.71 57.9435 267.732 57.751 266.873 57.5139C266.043 57.2769 265.317 57.0251 264.695 56.7585C264.103 56.4918 263.599 56.2401 263.184 56.003L265.14 50.4926C266.058 50.9963 267.184 51.4554 268.517 51.8702C269.88 52.2553 271.539 52.4479 273.494 52.4479ZM289.775 41.4715L302.662 41.4715L302.662 47.4708L289.775 47.4708L289.775 41.4715ZM315.72 52.4479C316.698 52.4479 317.498 52.3739 318.12 52.2257C318.771 52.048 319.29 51.8258 319.675 51.5591C320.06 51.2629 320.327 50.9221 320.475 50.537C320.623 50.1519 320.697 49.7223 320.697 49.2483C320.697 48.2411 320.223 47.4115 319.275 46.7597C318.327 46.0783 316.698 45.3526 314.387 44.5822C313.379 44.2267 312.372 43.8268 311.365 43.3824C310.358 42.9084 309.454 42.3307 308.654 41.6493C307.854 40.9382 307.202 40.0939 306.699 39.1163C306.195 38.109 305.943 36.8943 305.943 35.4723C305.943 34.0502 306.21 32.7764 306.743 31.6505C307.277 30.4951 308.032 29.5175 309.01 28.7176C309.987 27.9177 311.172 27.3104 312.565 26.8956C313.957 26.4512 315.527 26.229 317.275 26.229C319.349 26.229 321.142 26.4512 322.653 26.8956C324.163 27.34 325.408 27.8288 326.385 28.3621L324.386 33.828C323.526 33.3837 322.564 32.9986 321.497 32.6726C320.46 32.3171 319.201 32.1394 317.72 32.1394C316.061 32.1394 314.861 32.3764 314.12 32.8504C313.409 33.2948 313.054 33.9909 313.054 34.939C313.054 35.5019 313.187 35.976 313.454 36.3611C313.72 36.7461 314.091 37.1017 314.565 37.4276C315.068 37.7238 315.631 38.0053 316.253 38.2719C316.905 38.509 317.616 38.7607 318.386 39.0274C319.986 39.6199 321.379 40.2124 322.564 40.8049C323.749 41.3678 324.726 42.0344 325.497 42.8047C326.297 43.575 326.889 44.4785 327.274 45.5154C327.659 46.5524 327.852 47.8114 327.852 49.2927C327.852 52.1664 326.845 54.4032 324.83 56.003C322.815 57.5732 319.779 58.3583 315.72 58.3583C314.357 58.3583 313.128 58.2694 312.032 58.0916C310.935 57.9435 309.958 57.751 309.099 57.5139C308.269 57.2769 307.543 57.0251 306.921 56.7585C306.329 56.4918 305.825 56.2401 305.41 56.003L307.365 50.4926C308.284 50.9963 309.41 51.4554 310.743 51.8702C312.106 52.2553 313.765 52.4479 315.72 52.4479ZM342.429 26.5845C347.021 26.5845 350.547 27.3992 353.006 29.0286C355.465 30.6284 356.694 33.2652 356.694 36.9388C356.694 40.642 355.45 43.3231 352.961 44.9822C350.473 46.6116 346.918 47.4263 342.296 47.4263H340.119V57.7361L333.186 57.7361L333.186 27.3844C334.697 27.0882 336.297 26.8808 337.985 26.7623C339.674 26.6438 341.155 26.5845 342.429 26.5845ZM342.874 32.4949C342.37 32.4949 341.866 32.5097 341.363 32.5393C340.889 32.5689 340.474 32.5986 340.119 32.6282V41.516H342.296C344.696 41.516 346.503 41.19 347.718 40.5383C348.932 39.8866 349.54 38.6719 349.54 36.8943C349.54 36.0351 349.377 35.3241 349.051 34.7613C348.754 34.1984 348.31 33.754 347.718 33.4281C347.155 33.0726 346.458 32.8355 345.629 32.7171C344.799 32.5689 343.881 32.4949 342.874 32.4949ZM379.368 57.7361C379.041 56.6696 378.67 55.5735 378.257 54.4476C377.871 53.3218 377.486 52.1961 377.101 51.0703L365.102 51.0703C364.717 52.1961 364.317 53.3218 363.902 54.4476C363.517 55.5735 363.161 56.6696 362.836 57.7361L355.636 57.7361C356.792 54.4181 357.888 51.3518 358.925 48.5373C359.962 45.7228 360.969 43.0713 361.947 40.5827C362.954 38.0942 363.932 35.7389 364.88 33.517C365.857 31.2654 366.865 29.0731 367.902 26.94L374.524 26.94C375.531 29.0731 376.523 31.2654 377.501 33.517C378.479 35.7389 379.456 38.0942 380.434 40.5827C381.441 43.0713 382.463 45.7228 383.5 48.5373C384.536 51.3518 385.633 54.4181 386.789 57.7361L379.368 57.7361ZM371.057 33.9169C370.909 34.3613 370.687 34.9686 370.391 35.7389C370.094 36.5092 369.753 37.398 369.368 38.4052C368.983 39.4125 368.553 40.5234 368.079 41.7381C367.635 42.9529 367.176 44.2267 366.702 45.5599L375.457 45.5599C374.982 44.2267 374.524 42.9529 374.079 41.7381C373.635 40.5234 373.204 39.4125 372.791 38.4052C372.405 37.398 372.064 36.5092 371.768 35.7389C371.471 34.9686 371.235 34.3613 371.057 33.9169ZM411.439 57.7361C409.454 54.2106 407.306 50.7296 404.995 47.293C402.684 43.8563 400.225 40.6123 397.618 37.5609L397.618 57.7361L390.775 57.7361L390.775 26.94L396.418 26.94C397.396 27.9177 398.478 29.1175 399.662 30.5396C400.847 31.9616 402.047 33.4874 403.262 35.1168C404.506 36.7166 405.735 38.3904 406.95 40.1383C408.166 41.8566 409.306 43.5157 410.372 45.1155V26.94L417.26 26.94L417.26 57.7361L411.439 57.7361ZM445.029 57.7361C443.043 54.2106 440.896 50.7296 438.586 47.293C436.275 43.8563 433.815 40.6123 431.209 37.5609L431.209 57.7361L424.365 57.7361L424.365 26.94L430.009 26.94C430.986 27.9177 432.067 29.1175 433.253 30.5396C434.437 31.9616 435.637 33.4874 436.852 35.1168C438.097 36.7166 439.326 38.3904 440.541 40.1383C441.755 41.8566 442.896 43.5157 443.963 45.1155V26.94L450.851 26.94L450.851 57.7361L445.029 57.7361ZM464.887 52.0924C465.213 52.122 465.582 52.1517 465.998 52.1813C466.442 52.1813 466.96 52.1813 467.553 52.1813C471.019 52.1813 473.581 51.3074 475.241 49.5594C476.93 47.8114 477.774 45.397 477.774 42.3159C477.774 39.0867 476.974 36.6425 475.374 34.9834C473.774 33.3244 471.241 32.4949 467.775 32.4949C467.302 32.4949 466.813 32.5097 466.309 32.5393C465.804 32.5393 465.331 32.5689 464.887 32.6282L464.887 52.0924ZM484.929 42.3159C484.929 44.9822 484.513 47.3079 483.684 49.2927C482.855 51.2776 481.669 52.9219 480.129 54.2255C478.618 55.529 476.767 56.5067 474.574 57.1584C472.381 57.8101 469.923 58.1361 467.197 58.1361C465.953 58.1361 464.502 58.0768 462.842 57.9583C461.183 57.8694 459.554 57.6621 457.954 57.3362L457.954 27.34C459.554 27.0437 461.213 26.8511 462.931 26.7623C464.68 26.6438 466.175 26.5845 467.42 26.5845C470.057 26.5845 472.441 26.8808 474.574 27.4733C476.737 28.0658 478.589 28.999 480.129 30.2729C481.669 31.5468 482.855 33.1763 483.684 35.1612C484.513 37.1461 484.929 39.5311 484.929 42.3159ZM490.72 57.7361L490.72 26.94L511.517 26.94V32.7615L497.652 32.7615V38.8052L509.962 38.8052L509.962 44.4934L497.652 44.4934V51.9146L512.539 51.9146V57.7361L490.72 57.7361ZM531.712 58.3583C526.706 58.3583 522.884 56.9658 520.247 54.181C517.64 51.3962 516.336 47.4412 516.336 42.3159C516.336 39.768 516.736 37.5016 517.536 35.5167C518.336 33.5021 519.431 31.8134 520.824 30.4507C522.217 29.0583 523.875 28.0066 525.801 27.2955C527.728 26.5845 529.816 26.229 532.067 26.229C533.371 26.229 534.556 26.3327 535.623 26.5401C536.689 26.7178 537.622 26.94 538.422 27.2067C539.222 27.4437 539.889 27.6955 540.422 27.9621C540.955 28.2288 541.34 28.4361 541.577 28.5843L539.578 34.1836C538.629 33.6799 537.518 33.2503 536.245 32.8948C535 32.5393 533.578 32.3616 531.979 32.3616C530.912 32.3616 529.861 32.5393 528.823 32.8948C527.816 33.2503 526.912 33.828 526.113 34.6279C525.342 35.3983 524.72 36.4055 524.246 37.6498C523.773 38.8941 523.535 40.405 523.535 42.1825C523.535 43.6046 523.684 44.9377 523.979 46.182C524.306 47.3967 524.809 48.4484 525.49 49.3372C526.201 50.226 527.119 50.937 528.246 51.4702C529.372 51.9739 530.734 52.2257 532.334 52.2257C533.341 52.2257 534.245 52.1664 535.045 52.048C535.845 51.9295 536.556 51.7962 537.178 51.648C537.8 51.4702 538.349 51.2776 538.822 51.0703C539.296 50.863 539.726 50.6703 540.111 50.4926L542.022 56.0474C541.044 56.64 539.666 57.1733 537.889 57.6472C536.111 58.1212 534.052 58.3583 531.712 58.3583ZM564.661 57.7361C564.039 56.7289 563.298 55.6475 562.439 54.4921C561.61 53.3071 560.69 52.1368 559.684 50.9814C558.706 49.7964 557.684 48.6706 556.617 47.6041C555.551 46.508 554.484 45.545 553.418 44.7155V57.7361L546.485 57.7361V26.94L553.418 26.94V38.583C555.224 36.687 557.032 34.7168 558.839 32.6726C560.676 30.5989 562.379 28.688 563.95 26.94L572.171 26.94C570.067 29.4286 567.949 31.8283 565.816 34.1391C563.712 36.4499 561.49 38.7756 559.15 41.116C561.61 43.1602 563.979 45.5895 566.261 48.404C568.571 51.2185 570.778 54.3292 572.882 57.7361L564.661 57.7361ZM576.863 57.7361V26.94L597.661 26.94V32.7615L583.796 32.7615V38.8052L596.106 38.8052V44.4934L583.796 44.4934V51.9146L598.683 51.9146V57.7361L576.863 57.7361ZM624.477 57.7361C622.493 54.2106 620.344 50.7296 618.034 47.293C615.723 43.8563 613.265 40.6123 610.657 37.5609V57.7361L603.813 57.7361V26.94L609.457 26.94C610.434 27.9177 611.516 29.1175 612.701 30.5396C613.887 31.9616 615.087 33.4874 616.3 35.1168C617.545 36.7166 618.775 38.3904 619.989 40.1383C621.204 41.8566 622.344 43.5157 623.411 45.1155V26.94L630.299 26.94V57.7361L624.477 57.7361Z" fill="white"/>
<path d="M247.523 86.5569C247.523 88.0568 247.29 89.3651 246.823 90.4817C246.357 91.5816 245.698 92.4982 244.848 93.2315C243.999 93.9482 242.982 94.4898 241.799 94.8564C240.616 95.2064 239.316 95.3814 237.899 95.3814C237.199 95.3814 236.424 95.3481 235.575 95.2814C234.741 95.2314 233.983 95.1231 233.3 94.9564L233.3 78.1573C233.983 77.9906 234.741 77.8823 235.575 77.8323C236.424 77.7656 237.199 77.7323 237.899 77.7323C239.316 77.7323 240.616 77.9156 241.799 78.2823C242.982 78.6323 243.999 79.1739 244.848 79.9072C245.698 80.6238 246.357 81.5405 246.823 82.6571C247.29 83.757 247.523 85.0569 247.523 86.5569ZM238.099 93.2565C240.399 93.2565 242.115 92.6732 243.249 91.5066C244.382 90.3233 244.948 88.6734 244.948 86.5569C244.948 84.4403 244.382 82.7987 243.249 81.6321C242.115 80.4488 240.399 79.8572 238.099 79.8572C237.416 79.8572 236.883 79.8655 236.499 79.8822C236.133 79.8989 235.874 79.9155 235.725 79.9322L235.725 93.1815C235.874 93.1982 236.133 93.2149 236.499 93.2315C236.883 93.2482 237.416 93.2565 238.099 93.2565ZM256.744 95.2314L256.744 77.9073L267.318 77.9073V79.9822L259.169 79.9822V85.1319L266.418 85.1319V87.1568L259.169 87.1568V93.1565L267.943 93.1565V95.2314L256.744 95.2314ZM283.39 95.6064C282.174 95.6064 281.066 95.4064 280.066 95.0064C279.066 94.6065 278.208 94.0231 277.491 93.2565C276.774 92.4899 276.216 91.5483 275.816 90.4317C275.433 89.2984 275.241 88.0068 275.241 86.5569C275.241 85.1069 275.458 83.8237 275.891 82.7071C276.341 81.5738 276.941 80.6238 277.691 79.8572C278.441 79.0906 279.316 78.5073 280.316 78.1073C281.316 77.7073 282.382 77.5073 283.515 77.5073C284.232 77.5073 284.873 77.5573 285.44 77.6573C286.023 77.7573 286.523 77.874 286.94 78.0073C287.373 78.1406 287.723 78.274 287.99 78.4073C288.256 78.5406 288.44 78.6406 288.54 78.7073L287.84 80.7072C287.69 80.6072 287.473 80.4988 287.19 80.3822C286.907 80.2655 286.582 80.1489 286.215 80.0322C285.865 79.9155 285.473 79.8239 285.04 79.7572C284.624 79.6739 284.199 79.6322 283.765 79.6322C282.849 79.6322 282.024 79.7905 281.291 80.1072C280.557 80.4238 279.932 80.8822 279.416 81.4821C278.899 82.0821 278.499 82.8154 278.216 83.682C277.949 84.532 277.816 85.4903 277.816 86.5569C277.816 87.5901 277.933 88.5318 278.166 89.3817C278.416 90.2317 278.783 90.965 279.266 91.5816C279.749 92.1816 280.349 92.6482 281.066 92.9815C281.799 93.3148 282.649 93.4815 283.615 93.4815C284.732 93.4815 285.657 93.3648 286.39 93.1315C287.123 92.8982 287.673 92.6899 288.04 92.5066L288.665 94.5065C288.548 94.5898 288.34 94.6981 288.04 94.8314C287.74 94.9481 287.365 95.0648 286.915 95.1814C286.465 95.2981 285.94 95.3981 285.34 95.4814C284.74 95.5647 284.09 95.6064 283.39 95.6064ZM309.89 77.9073C309.373 78.4739 308.79 79.1072 308.14 79.8072C307.49 80.4905 306.807 81.1988 306.091 81.9321C305.391 82.6487 304.691 83.357 303.991 84.057C303.291 84.757 302.633 85.4069 302.016 86.0069C302.733 86.5069 303.491 87.1235 304.291 87.8568C305.091 88.5901 305.874 89.3734 306.64 90.2067C307.407 91.04 308.124 91.8899 308.79 92.7565C309.473 93.6232 310.04 94.4481 310.49 95.2314H307.64C307.14 94.4481 306.565 93.6648 305.916 92.8815C305.266 92.0816 304.574 91.3233 303.841 90.6067C303.124 89.8734 302.391 89.1984 301.641 88.5818C300.908 87.9651 300.191 87.4401 299.491 87.0068V95.2314H297.067V77.9073H299.491V85.5569C300.075 85.0069 300.716 84.3903 301.416 83.707C302.116 83.007 302.808 82.3071 303.491 81.6071C304.174 80.9071 304.816 80.2405 305.416 79.6072C306.032 78.9573 306.549 78.3906 306.965 77.9073H309.89ZM318.412 95.2314V77.9073L328.985 77.9073V79.9822L320.836 79.9822V85.1319H328.086V87.1568L320.836 87.1568V93.1565L329.61 93.1565V95.2314L318.412 95.2314ZM350.19 95.2314C349.824 94.6148 349.399 93.9232 348.915 93.1565C348.449 92.3899 347.94 91.5983 347.39 90.7816C346.841 89.9484 346.266 89.1067 345.666 88.2568C345.082 87.4068 344.499 86.5902 343.916 85.8069C343.333 85.0069 342.766 84.257 342.216 83.557C341.666 82.8571 341.158 82.2404 340.691 81.7071V95.2314H338.317V77.9073H340.241C341.025 78.7406 341.858 79.7155 342.741 80.8322C343.641 81.9321 344.524 83.0737 345.391 84.257C346.274 85.4236 347.099 86.5735 347.865 87.7068C348.649 88.8401 349.307 89.8484 349.84 90.7316V77.9073H352.215V95.2314H350.19ZM387.76 86.5569C387.76 88.0568 387.527 89.3651 387.061 90.4817C386.594 91.5816 385.936 92.4982 385.086 93.2315C384.236 93.9482 383.219 94.4898 382.036 94.8564C380.853 95.2064 379.553 95.3814 378.137 95.3814C377.437 95.3814 376.662 95.3481 375.812 95.2814C374.979 95.2314 374.22 95.1231 373.537 94.9564V78.1573C374.22 77.9906 374.979 77.8823 375.812 77.8323C376.662 77.7656 377.437 77.7323 378.137 77.7323C379.553 77.7323 380.853 77.9156 382.036 78.2823C383.219 78.6323 384.236 79.1739 385.086 79.9072C385.936 80.6238 386.594 81.5405 387.061 82.6571C387.527 83.757 387.76 85.0569 387.76 86.5569ZM378.337 93.2565C380.636 93.2565 382.353 92.6732 383.486 91.5066C384.619 90.3233 385.186 88.6734 385.186 86.5569C385.186 84.4403 384.619 82.7987 383.486 81.6321C382.353 80.4488 380.636 79.8572 378.337 79.8572C377.653 79.8572 377.12 79.8655 376.737 79.8822C376.37 79.8989 376.112 79.9155 375.962 79.9322V93.1815C376.112 93.1982 376.37 93.2149 376.737 93.2315C377.12 93.2482 377.653 93.2565 378.337 93.2565ZM396.982 77.9073H399.406V95.2314H396.982V77.9073ZM409.319 95.2314V77.9073L419.893 77.9073V79.9822L411.744 79.9822V85.1319H418.993V87.1568H411.744V93.1565L420.518 93.1565V95.2314L409.319 95.2314ZM445.308 95.3814C444.958 95.3814 444.575 95.3731 444.158 95.3564C443.758 95.3397 443.35 95.3147 442.933 95.2814C442.533 95.2481 442.133 95.2064 441.733 95.1564C441.333 95.1064 440.967 95.0398 440.633 94.9564V78.1573C440.967 78.074 441.333 78.0073 441.733 77.9573C442.133 77.9073 442.533 77.8656 442.933 77.8323C443.35 77.799 443.758 77.774 444.158 77.7573C444.558 77.7406 444.933 77.7323 445.283 77.7323C446.283 77.7323 447.216 77.8073 448.082 77.9573C448.966 78.1073 449.724 78.3656 450.357 78.7323C451.007 79.0822 451.515 79.5489 451.882 80.1322C452.249 80.7155 452.432 81.4321 452.432 82.2821C452.432 83.232 452.207 84.0153 451.757 84.632C451.307 85.2319 450.707 85.6819 449.957 85.9819C450.974 86.2819 451.782 86.7569 452.382 87.4068C452.982 88.0568 453.282 88.9734 453.282 90.1567C453.282 91.8899 452.64 93.1982 451.357 94.0815C450.091 94.9481 448.074 95.3814 445.308 95.3814ZM443.033 87.1568V93.2565C443.216 93.2732 443.433 93.2898 443.683 93.3065C443.9 93.3232 444.15 93.3398 444.433 93.3565C444.733 93.3565 445.074 93.3565 445.458 93.3565C446.174 93.3565 446.849 93.3148 447.483 93.2315C448.132 93.1315 448.699 92.9649 449.182 92.7315C449.666 92.4982 450.049 92.1732 450.332 91.7566C450.632 91.34 450.782 90.815 450.782 90.1817C450.782 89.615 450.674 89.1401 450.457 88.7568C450.241 88.3568 449.924 88.0401 449.507 87.8068C449.107 87.5735 448.624 87.4068 448.057 87.3068C447.491 87.2068 446.858 87.1568 446.158 87.1568L443.033 87.1568ZM443.033 85.2069L445.583 85.2069C446.183 85.2069 446.749 85.1653 447.283 85.0819C447.816 84.9986 448.274 84.8486 448.657 84.632C449.057 84.4153 449.366 84.132 449.582 83.782C449.816 83.432 449.932 82.9904 449.932 82.4571C449.932 81.9571 449.816 81.5405 449.582 81.2071C449.349 80.8572 449.024 80.5822 448.607 80.3822C448.207 80.1655 447.732 80.0072 447.183 79.9072C446.633 79.8072 446.049 79.7572 445.433 79.7572C444.816 79.7572 444.333 79.7655 443.983 79.7822C443.633 79.7989 443.316 79.8239 443.033 79.8572V85.2069ZM462.32 95.2314V77.9073L472.893 77.9073V79.9822L464.744 79.9822V85.1319L471.993 85.1319V87.1568L464.744 87.1568V93.1565L473.518 93.1565V95.2314L462.32 95.2314ZM492.091 86.7069L494.516 86.7069L494.516 94.8064C494.316 94.8731 494.024 94.9481 493.641 95.0314C493.274 95.1148 492.841 95.1981 492.341 95.2814C491.858 95.3647 491.324 95.4314 490.741 95.4814C490.158 95.5481 489.566 95.5814 488.966 95.5814C487.75 95.5814 486.642 95.3814 485.642 94.9814C484.642 94.5814 483.784 93.9981 483.067 93.2315C482.351 92.4649 481.792 91.5233 481.392 90.4067C481.009 89.2901 480.817 88.0068 480.817 86.5569C480.817 85.1069 481.034 83.8237 481.467 82.7071C481.917 81.5738 482.517 80.6238 483.267 79.8572C484.017 79.0906 484.892 78.5073 485.892 78.1073C486.908 77.7073 487.992 77.5073 489.141 77.5073C489.925 77.5073 490.616 77.5573 491.216 77.6573C491.833 77.7573 492.358 77.874 492.791 78.0073C493.224 78.1406 493.574 78.274 493.841 78.4073C494.124 78.5406 494.316 78.6406 494.416 78.7073L493.641 80.7322C493.158 80.4155 492.516 80.1572 491.716 79.9572C490.916 79.7405 490.1 79.6322 489.266 79.6322C488.383 79.6322 487.575 79.7905 486.842 80.1072C486.125 80.4238 485.509 80.8822 484.992 81.4821C484.492 82.0821 484.1 82.8154 483.817 83.682C483.534 84.532 483.392 85.4903 483.392 86.5569C483.392 87.5901 483.509 88.5318 483.742 89.3817C483.992 90.2317 484.359 90.965 484.842 91.5816C485.342 92.1816 485.95 92.6482 486.667 92.9815C487.4 93.3148 488.258 93.4815 489.241 93.4815C489.941 93.4815 490.533 93.4482 491.016 93.3815C491.516 93.2982 491.874 93.2232 492.091 93.1565V86.7069ZM503.937 95.2314L503.937 77.9073L514.511 77.9073V79.9822L506.362 79.9822V85.1319L513.611 85.1319V87.1568L506.362 87.1568V93.1565L515.136 93.1565V95.2314L503.937 95.2314ZM523.841 77.9073H526.266V95.2314H523.841V77.9073ZM540.203 93.5065C542.736 93.5065 544.003 92.6399 544.003 90.9066C544.003 90.3733 543.886 89.9234 543.653 89.5567C543.436 89.1734 543.136 88.8484 542.753 88.5818C542.37 88.2984 541.928 88.0568 541.428 87.8568C540.945 87.6568 540.428 87.4568 539.878 87.2568C539.245 87.0402 538.645 86.7985 538.079 86.5319C537.512 86.2485 537.02 85.9236 536.604 85.5569C536.187 85.1736 535.854 84.7236 535.604 84.207C535.371 83.6903 535.254 83.0654 535.254 82.3321C535.254 80.8155 535.771 79.6322 536.804 78.7823C537.837 77.9323 539.262 77.5073 541.078 77.5073C542.128 77.5073 543.078 77.624 543.928 77.8573C544.794 78.074 545.428 78.3156 545.828 78.5823L545.053 80.5572C544.703 80.3405 544.178 80.1322 543.478 79.9322C542.795 79.7155 541.995 79.6072 541.078 79.6072C540.612 79.6072 540.178 79.6572 539.778 79.7572C539.378 79.8572 539.029 80.0072 538.729 80.2072C538.429 80.4072 538.187 80.6655 538.004 80.9821C537.837 81.2821 537.754 81.6404 537.754 82.0571C537.754 82.5237 537.845 82.9154 538.029 83.232C538.212 83.5487 538.47 83.832 538.804 84.082C539.137 84.3153 539.52 84.532 539.953 84.732C540.403 84.9319 540.895 85.1319 541.428 85.3319C542.178 85.6319 542.861 85.9319 543.478 86.2319C544.111 86.5319 544.653 86.8902 545.103 87.3068C545.569 87.7235 545.928 88.2234 546.178 88.8067C546.428 89.3734 546.553 90.065 546.553 90.8816C546.553 92.3982 545.994 93.5648 544.878 94.3815C543.778 95.1981 542.22 95.6064 540.203 95.6064C539.52 95.6064 538.887 95.5564 538.304 95.4564C537.737 95.3731 537.229 95.2731 536.779 95.1564C536.329 95.0231 535.937 94.8898 535.604 94.7564C535.287 94.6065 535.037 94.4815 534.854 94.3815L535.579 92.3816C535.962 92.5982 536.545 92.8399 537.329 93.1065C538.112 93.3732 539.07 93.5065 540.203 93.5065ZM566.681 77.9073V80.0072H561.231V95.2314L558.807 95.2314V80.0072H553.357V77.9073L566.681 77.9073ZM574.866 95.2314V77.9073L585.44 77.9073V79.9822H577.291V85.1319H584.54V87.1568H577.291V93.1565L586.065 93.1565V95.2314L574.866 95.2314ZM603.244 87.9818C603.511 88.3151 603.844 88.7568 604.244 89.3067C604.661 89.84 605.086 90.44 605.519 91.1066C605.952 91.7566 606.377 92.4399 606.794 93.1565C607.227 93.8732 607.594 94.5648 607.894 95.2314H605.244C604.911 94.5981 604.544 93.9565 604.144 93.3065C603.761 92.6565 603.369 92.0399 602.969 91.4566C602.57 90.8566 602.17 90.2983 601.77 89.7817C601.386 89.2651 601.036 88.8151 600.72 88.4318C600.503 88.4484 600.278 88.4568 600.045 88.4568C599.828 88.4568 599.603 88.4568 599.37 88.4568H597.195V95.2314H594.77V78.1573C595.454 77.9906 596.212 77.8823 597.045 77.8323C597.895 77.7656 598.67 77.7323 599.37 77.7323C601.803 77.7323 603.653 78.1906 604.919 79.1072C606.202 80.0239 606.844 81.3905 606.844 83.207C606.844 84.357 606.536 85.3403 605.919 86.1569C605.319 86.9735 604.428 87.5818 603.244 87.9818ZM599.57 79.8572C598.537 79.8572 597.745 79.8822 597.195 79.9322V86.4569H598.92C599.753 86.4569 600.503 86.4152 601.17 86.3319C601.836 86.2485 602.395 86.0902 602.844 85.8569C603.311 85.6236 603.669 85.2986 603.919 84.8819C604.169 84.4486 604.294 83.882 604.294 83.182C604.294 82.5321 604.169 81.9904 603.919 81.5571C603.669 81.1238 603.328 80.7822 602.894 80.5322C602.478 80.2822 601.978 80.1072 601.395 80.0072C600.828 79.9072 600.22 79.8572 599.57 79.8572ZM627.989 95.2314C627.622 94.6148 627.197 93.9232 626.714 93.1565C626.247 92.3899 625.739 91.5983 625.189 90.7816C624.639 89.9484 624.064 89.1067 623.464 88.2568C622.881 87.4068 622.298 86.5902 621.714 85.8069C621.131 85.0069 620.565 84.257 620.015 83.557C619.465 82.8571 618.956 82.2404 618.49 81.7071V95.2314H616.115V77.9073H618.04C618.823 78.7406 619.656 79.7155 620.54 80.8322C621.44 81.9321 622.323 83.0737 623.189 84.257C624.073 85.4236 624.897 86.5735 625.664 87.7068C626.447 88.8401 627.105 89.8484 627.639 90.7316V77.9073H630.013V95.2314H627.989Z" fill="white"/>
</svg>
