<svg width="35" height="35" viewBox="0 0 35 35" fill="none" xmlns="http://www.w3.org/2000/svg">
<g clip-path="url(#clip0)">
<path d="M32.0833 4.375H2.91669C1.30806 4.375 0 5.68306 0 7.29169V27.7084C0 29.3169 1.30806 30.625 2.91669 30.625H32.0834C33.6919 30.625 35 29.3169 35 27.7083V7.29169C35 5.68306 33.6919 4.375 32.0833 4.375ZM2.91669 5.83331H32.0834C32.1908 5.83331 32.2855 5.87248 32.3863 5.89463C29.8612 8.20565 21.4883 15.8655 18.5582 18.5054C18.3289 18.7119 17.9594 18.9583 17.5001 18.9583C17.0408 18.9583 16.6712 18.7119 16.4412 18.5047C13.5114 15.8652 5.13796 8.20497 2.61324 5.89477C2.71428 5.87262 2.80916 5.83331 2.91669 5.83331ZM1.45831 27.7083V7.29169C1.45831 7.14882 1.50138 7.01921 1.53993 6.88864C3.47259 8.65751 9.31485 14.0021 13.1031 17.447C9.32716 20.6904 3.48339 26.2308 1.53535 28.0884C1.50097 27.9644 1.45831 27.8431 1.45831 27.7083ZM32.0833 29.1667H2.91669C2.8002 29.1667 2.69664 29.1261 2.58788 29.1001C4.60086 27.1811 10.4818 21.6089 14.1913 18.4354C14.6749 18.8741 15.1167 19.2741 15.4649 19.5878C16.0659 20.1305 16.7694 20.4167 17.5 20.4167C18.2306 20.4167 18.9341 20.1304 19.5344 19.5885C19.8827 19.2746 20.3248 18.8743 20.8087 18.4354C24.5184 21.6085 30.3985 27.1804 32.4121 29.1001C32.3034 29.1261 32.1999 29.1667 32.0833 29.1667ZM33.5417 27.7083C33.5417 27.843 33.499 27.9644 33.4647 28.0884C31.5159 26.2298 25.6728 20.6901 21.897 17.447C25.6854 14.0022 31.5267 8.65806 33.4601 6.88851C33.4986 7.01907 33.5417 7.14875 33.5417 7.29162V27.7083Z" fill="white" stroke="white" stroke-width="0.5"/>
</g>
<defs>
<clipPath id="clip0">
<rect width="35" height="35" fill="white"/>
</clipPath>
</defs>
</svg>
