<svg width="35" height="27" viewBox="0 0 35 27" fill="none" xmlns="http://www.w3.org/2000/svg">
<path d="M32.0833 0.375H2.91669C1.30806 0.375 0 1.68306 0 3.29169V23.7084C0 25.3169 1.30806 26.625 2.91669 26.625H32.0834C33.6919 26.625 35 25.3169 35 23.7083V3.29169C35 1.68306 33.6919 0.375 32.0833 0.375ZM2.91669 1.83331H32.0834C32.1908 1.83331 32.2855 1.87248 32.3863 1.89463C29.8612 4.20565 21.4883 11.8655 18.5582 14.5054C18.3289 14.7119 17.9594 14.9583 17.5001 14.9583C17.0408 14.9583 16.6712 14.7119 16.4412 14.5047C13.5114 11.8652 5.13796 4.20497 2.61324 1.89477C2.71428 1.87262 2.80916 1.83331 2.91669 1.83331ZM1.45831 23.7083V3.29169C1.45831 3.14882 1.50138 3.01921 1.53993 2.88864C3.47259 4.65751 9.31485 10.0021 13.1031 13.447C9.32716 16.6904 3.48339 22.2308 1.53535 24.0884C1.50097 23.9644 1.45831 23.8431 1.45831 23.7083ZM32.0833 25.1667H2.91669C2.8002 25.1667 2.69664 25.1261 2.58788 25.1001C4.60086 23.1811 10.4818 17.6089 14.1913 14.4354C14.6749 14.8741 15.1167 15.2741 15.4649 15.5878C16.0659 16.1305 16.7694 16.4167 17.5 16.4167C18.2306 16.4167 18.9341 16.1304 19.5344 15.5885C19.8827 15.2746 20.3248 14.8743 20.8087 14.4354C24.5184 17.6085 30.3985 23.1804 32.4121 25.1001C32.3034 25.1261 32.1999 25.1667 32.0833 25.1667ZM33.5417 23.7083C33.5417 23.843 33.499 23.9644 33.4647 24.0884C31.5159 22.2298 25.6728 16.6901 21.897 13.447C25.6854 10.0022 31.5267 4.65806 33.4601 2.88851C33.4986 3.01907 33.5417 3.14875 33.5417 3.29162V23.7083Z" fill="white"/>
<path d="M32.0833 0.375H2.91669C1.30806 0.375 0 1.68306 0 3.29169V23.7084C0 25.3169 1.30806 26.625 2.91669 26.625H32.0834C33.6919 26.625 35 25.3169 35 23.7083V3.29169C35 1.68306 33.6919 0.375 32.0833 0.375ZM2.91669 1.83331H32.0834C32.1908 1.83331 32.2855 1.87248 32.3863 1.89463C29.8612 4.20565 21.4883 11.8655 18.5582 14.5054C18.3289 14.7119 17.9594 14.9583 17.5001 14.9583C17.0408 14.9583 16.6712 14.7119 16.4412 14.5047C13.5114 11.8652 5.13796 4.20497 2.61324 1.89477C2.71428 1.87262 2.80916 1.83331 2.91669 1.83331ZM1.45831 23.7083V3.29169C1.45831 3.14882 1.50138 3.01921 1.53993 2.88864C3.47259 4.65751 9.31485 10.0021 13.1031 13.447C9.32716 16.6904 3.48339 22.2308 1.53535 24.0884C1.50097 23.9644 1.45831 23.8431 1.45831 23.7083ZM32.0833 25.1667H2.91669C2.8002 25.1667 2.69664 25.1261 2.58788 25.1001C4.60086 23.1811 10.4818 17.6089 14.1913 14.4354C14.6749 14.8741 15.1167 15.2741 15.4649 15.5878C16.0659 16.1305 16.7694 16.4167 17.5 16.4167C18.2306 16.4167 18.9341 16.1304 19.5344 15.5885C19.8827 15.2746 20.3248 14.8743 20.8087 14.4354C24.5184 17.6085 30.3985 23.1804 32.4121 25.1001C32.3034 25.1261 32.1999 25.1667 32.0833 25.1667ZM33.5417 23.7083C33.5417 23.843 33.499 23.9644 33.4647 24.0884C31.5159 22.2298 25.6728 16.6901 21.897 13.447C25.6854 10.0022 31.5267 4.65806 33.4601 2.88851C33.4986 3.01907 33.5417 3.14875 33.5417 3.29162V23.7083Z" fill="#1F1E24"/>
<path d="M32.0833 0.375H2.91669C1.30806 0.375 0 1.68306 0 3.29169V23.7084C0 25.3169 1.30806 26.625 2.91669 26.625H32.0834C33.6919 26.625 35 25.3169 35 23.7083V3.29169C35 1.68306 33.6919 0.375 32.0833 0.375ZM2.91669 1.83331H32.0834C32.1908 1.83331 32.2855 1.87248 32.3863 1.89463C29.8612 4.20565 21.4883 11.8655 18.5582 14.5054C18.3289 14.7119 17.9594 14.9583 17.5001 14.9583C17.0408 14.9583 16.6712 14.7119 16.4412 14.5047C13.5114 11.8652 5.13796 4.20497 2.61324 1.89477C2.71428 1.87262 2.80916 1.83331 2.91669 1.83331ZM1.45831 23.7083V3.29169C1.45831 3.14882 1.50138 3.01921 1.53993 2.88864C3.47259 4.65751 9.31485 10.0021 13.1031 13.447C9.32716 16.6904 3.48339 22.2308 1.53535 24.0884C1.50097 23.9644 1.45831 23.8431 1.45831 23.7083ZM32.0833 25.1667H2.91669C2.8002 25.1667 2.69664 25.1261 2.58788 25.1001C4.60086 23.1811 10.4818 17.6089 14.1913 14.4354C14.6749 14.8741 15.1167 15.2741 15.4649 15.5878C16.0659 16.1305 16.7694 16.4167 17.5 16.4167C18.2306 16.4167 18.9341 16.1304 19.5344 15.5885C19.8827 15.2746 20.3248 14.8743 20.8087 14.4354C24.5184 17.6085 30.3985 23.1804 32.4121 25.1001C32.3034 25.1261 32.1999 25.1667 32.0833 25.1667ZM33.5417 23.7083C33.5417 23.843 33.499 23.9644 33.4647 24.0884C31.5159 22.2298 25.6728 16.6901 21.897 13.447C25.6854 10.0022 31.5267 4.65806 33.4601 2.88851C33.4986 3.01907 33.5417 3.14875 33.5417 3.29162V23.7083Z" stroke="#1F1E24" stroke-width="0.5"/>
</svg>
