<svg width="35" height="35" viewBox="0 0 35 35" fill="none" xmlns="http://www.w3.org/2000/svg">
<path d="M34.2317 27.4119C34.2275 27.4073 34.2224 27.4018 34.2161 27.3955C34.1684 27.3472 34.0838 27.2754 33.9478 27.1806C33.6762 26.9912 33.2656 26.7552 32.6992 26.4723L32.678 26.4617L32.6575 26.4498C32.353 26.2728 31.9132 26.0289 31.3348 25.7147C30.7525 25.3985 30.2228 25.1066 29.7471 24.8393C29.747 24.8392 29.7469 24.8391 29.7468 24.8391L30.1142 24.1852C29.6412 23.9201 29.1982 23.6633 28.7842 23.4151L34.2317 27.4119ZM34.2317 27.4119C34.2331 27.4185 34.235 27.4286 34.2371 27.4428C34.2431 27.4852 34.248 27.5494 34.2478 27.6403V27.642C34.2478 28.0085 34.1787 28.53 34.0183 29.2257L34.0181 29.2263C33.8571 29.9272 33.6964 30.4423 33.5411 30.7935L33.5382 30.8L33.5355 30.8066C33.4224 31.0761 33.1735 31.4138 32.7161 31.8115C32.2637 32.2047 31.6416 32.6269 30.8345 33.0746C30.8355 33.074 30.8365 33.0735 30.8375 33.0729L31.1952 33.7322C32.8685 32.8044 33.879 31.926 34.227 31.0968C34.41 30.6829 34.5834 30.1153 34.7491 29.3942C34.9153 28.6735 34.9978 28.0896 34.9978 27.642" stroke="white" stroke-width="1.5"/>
</svg>
