<svg width="35" height="35" viewBox="0 0 35 35" fill="none" xmlns="http://www.w3.org/2000/svg">
<path d="M25.3039 0H9.69994C8.39994 0 7.33594 1.063 7.33594 2.364V32.635C7.33594 33.936 8.39994 35 9.69994 35H25.3039C26.6039 35 27.6679 33.938 27.6679 32.636V2.364C27.6679 1.063 26.6039 0 25.3039 0ZM15.0059 1.704H19.9979C20.1559 1.704 20.2839 1.832 20.2839 1.991C20.2839 2.149 20.1559 2.277 19.9979 2.277H15.0059C14.8479 2.277 14.7199 2.149 14.7199 1.991C14.7199 1.832 14.8479 1.704 15.0059 1.704ZM17.5019 33.818C16.8489 33.818 16.3199 33.289 16.3199 32.635C16.3199 31.981 16.8489 31.453 17.5019 31.453C18.1549 31.453 18.6839 31.981 18.6839 32.635C18.6839 33.289 18.1549 33.818 17.5019 33.818ZM26.0229 30.625H8.98094V3.749H26.0229V30.625Z" fill="black"/>
<path d="M25.3039 0H9.69994C8.39994 0 7.33594 1.063 7.33594 2.364V32.635C7.33594 33.936 8.39994 35 9.69994 35H25.3039C26.6039 35 27.6679 33.938 27.6679 32.636V2.364C27.6679 1.063 26.6039 0 25.3039 0ZM15.0059 1.704H19.9979C20.1559 1.704 20.2839 1.832 20.2839 1.991C20.2839 2.149 20.1559 2.277 19.9979 2.277H15.0059C14.8479 2.277 14.7199 2.149 14.7199 1.991C14.7199 1.832 14.8479 1.704 15.0059 1.704ZM17.5019 33.818C16.8489 33.818 16.3199 33.289 16.3199 32.635C16.3199 31.981 16.8489 31.453 17.5019 31.453C18.1549 31.453 18.6839 31.981 18.6839 32.635C18.6839 33.289 18.1549 33.818 17.5019 33.818ZM26.0229 30.625H8.98094V3.749H26.0229V30.625Z" fill="white"/>
</svg>
