<svg width="35" height="29" viewBox="0 0 35 29" fill="none" xmlns="http://www.w3.org/2000/svg">
<path opacity="0.78" d="M13.0574 28.6455C11.5439 28.6455 9.98608 28.5229 8.41888 28.2772C5.65861 27.8441 2.86442 26.4003 2.07375 25.968L0 24.8342L2.24518 24.0958C4.69944 23.2889 6.1924 22.7882 8.0405 22.0042C6.18999 21.1081 4.76379 19.496 4.07726 17.4121L3.55495 15.8265L3.98327 15.8919C3.57712 15.4826 3.25642 15.0671 3.00781 14.6892C2.12368 13.3463 1.65558 11.7054 1.75518 10.2993L1.85345 8.91525L2.68204 9.23622C2.3325 8.57612 2.07989 7.87117 1.93142 7.1323C1.5696 5.33039 1.87241 3.41606 2.78431 1.74206L3.50609 0.417059L4.4714 1.5765C7.52434 5.24387 11.3912 7.41936 15.9806 8.05622C15.7932 6.76407 15.9336 5.51704 16.3985 4.39926C16.9398 3.09776 17.9027 1.99413 19.1823 1.20746C20.6034 0.334014 22.3268 -0.0892272 24.035 0.0157152C25.8473 0.127066 27.4928 0.80612 28.7996 1.98078C29.4378 1.81496 29.908 1.63792 30.5436 1.39866C30.9259 1.25473 31.3596 1.09131 31.9022 0.904387L33.9017 0.215453L32.5978 3.93944C32.6838 3.93223 32.7724 3.92608 32.8651 3.92208L35.0003 3.82542L33.7383 5.55015C33.6659 5.64895 33.6475 5.67699 33.6219 5.71571C33.5201 5.86899 33.3936 6.05965 31.6613 8.37265C31.2277 8.95183 31.0111 9.70619 31.0514 10.4971C31.205 13.5028 30.8362 16.2222 29.9548 18.5796C29.1211 20.8098 27.8292 22.7233 26.1154 24.267C23.9947 26.1768 21.2905 27.4844 18.0776 28.1531C16.5016 28.481 14.8092 28.6455 13.0574 28.6455Z" fill="white"/>
</svg>
