<svg width="35" height="35" viewBox="0 0 35 35" fill="none" xmlns="http://www.w3.org/2000/svg">
<g clip-path="url(#clip0)">
<path d="M30.0287 4.97128C26.8228 1.76533 22.5613 0 18.0271 0C18.0269 0 18.0258 0 18.0255 0C15.783 0.000267029 13.5976 0.434456 11.5306 1.29082C9.46324 2.14718 7.61113 3.38539 6.02524 4.97128C2.81956 8.17696 1.05423 12.4393 1.05423 16.9729C1.05423 19.6766 1.70659 22.3634 2.94266 24.7573L0.0897257 32.9076C-0.111347 33.4825 0.0309794 34.1073 0.461964 34.538C0.763439 34.8398 1.16024 35 1.56826 35C1.74317 35 1.91994 34.9706 2.09244 34.9103L10.2427 32.0576C12.6366 33.2937 15.3235 33.946 18.0271 33.946C22.5607 33.946 26.8228 32.1804 30.0287 28.9748C33.2344 25.7691 35 21.5068 35 16.9732C35 12.4393 33.2347 8.17696 30.0287 4.97128ZM28.5772 27.5232C25.7592 30.3414 22.0123 31.8931 18.0271 31.8931C15.5891 31.8931 13.1672 31.2902 11.023 30.1489C10.6342 29.9422 10.1746 29.9067 9.76204 30.0512L2.35733 32.6427L4.94912 25.238C5.09358 24.8249 5.0578 24.3653 4.85112 23.9768C3.7101 21.8331 3.10688 19.4111 3.10688 16.9729C3.10688 12.9877 4.65886 9.2408 7.47681 6.42284C10.2945 3.60516 14.0409 2.05318 18.0258 2.05265H18.0271C22.0125 2.05265 25.7592 3.60462 28.5772 6.42284C31.3954 9.2408 32.9474 12.9875 32.9474 16.9729C32.9474 20.9583 31.3954 24.7052 28.5772 27.5232Z" fill="black"/>
<path d="M30.0287 4.97128C26.8228 1.76533 22.5613 0 18.0271 0C18.0269 0 18.0258 0 18.0255 0C15.783 0.000267029 13.5976 0.434456 11.5306 1.29082C9.46324 2.14718 7.61113 3.38539 6.02524 4.97128C2.81956 8.17696 1.05423 12.4393 1.05423 16.9729C1.05423 19.6766 1.70659 22.3634 2.94266 24.7573L0.0897257 32.9076C-0.111347 33.4825 0.0309794 34.1073 0.461964 34.538C0.763439 34.8398 1.16024 35 1.56826 35C1.74317 35 1.91994 34.9706 2.09244 34.9103L10.2427 32.0576C12.6366 33.2937 15.3235 33.946 18.0271 33.946C22.5607 33.946 26.8228 32.1804 30.0287 28.9748C33.2344 25.7691 35 21.5068 35 16.9732C35 12.4393 33.2347 8.17696 30.0287 4.97128ZM28.5772 27.5232C25.7592 30.3414 22.0123 31.8931 18.0271 31.8931C15.5891 31.8931 13.1672 31.2902 11.023 30.1489C10.6342 29.9422 10.1746 29.9067 9.76204 30.0512L2.35733 32.6427L4.94912 25.238C5.09358 24.8249 5.0578 24.3653 4.85112 23.9768C3.7101 21.8331 3.10688 19.4111 3.10688 16.9729C3.10688 12.9877 4.65886 9.2408 7.47681 6.42284C10.2945 3.60516 14.0409 2.05318 18.0258 2.05265H18.0271C22.0125 2.05265 25.7592 3.60462 28.5772 6.42284C31.3954 9.2408 32.9474 12.9875 32.9474 16.9729C32.9474 20.9583 31.3954 24.7052 28.5772 27.5232Z" fill="white"/>
<path d="M24.3365 18.4891C23.5557 17.7083 22.2852 17.7083 21.5044 18.4891L20.6504 19.3431C18.53 18.1876 16.814 16.4717 15.6583 14.3512L16.5123 13.4973C17.2934 12.7165 17.2934 11.446 16.5123 10.6652L14.211 8.36391C13.4302 7.58312 12.1597 7.58312 11.3789 8.36391L9.53803 10.2048C8.48354 11.2593 8.43093 13.0722 9.38983 15.3096C10.2224 17.2522 11.7461 19.3874 13.6802 21.3215C15.6143 23.2556 17.7494 24.7792 19.6921 25.6118C20.7551 26.0674 21.722 26.2946 22.5576 26.2946C23.4807 26.2946 24.2433 26.0172 24.7969 25.4636L26.6378 23.6225V23.6227C27.0161 23.2444 27.2244 22.7415 27.2244 22.2067C27.2244 21.6716 27.0161 21.1687 26.6378 20.7906L24.3365 18.4891ZM23.3453 24.0121C23.0444 24.313 22.1188 24.4185 20.5009 23.7253C18.7925 22.9931 16.8856 21.6238 15.1318 19.8699C13.3779 18.1161 12.0089 16.2095 11.2767 14.501C10.5832 12.8831 10.6887 11.9573 10.9896 11.6564L12.7953 9.85073L15.0255 12.0812L13.9566 13.1504C13.4732 13.6337 13.3565 14.3667 13.6666 14.9745C15.0719 17.7302 17.2715 19.9297 20.0272 21.3351C20.6352 21.6451 21.3682 21.5287 21.8515 21.0451L22.9204 19.9762L25.1509 22.2067L23.3453 24.0121Z" fill="white"/>
</g>
<defs>
<clipPath id="clip0">
<rect width="35" height="35" fill="white"/>
</clipPath>
</defs>
</svg>
